<svg xmlns="http://www.w3.org/2000/svg" version="1.1" xmlns:xlink="http://www.w3.org/1999/xlink" xmlns:svgjs="http://svgjs.dev/svgjs" width="2000" height="2242" viewBox="0 0 2000 2242"><g transform="matrix(1,0,0,1,-3.1151183800621993,0)"><svg viewBox="0 0 321 360" data-background-color="#d2d6d9" preserveAspectRatio="xMidYMid meet" height="2242" width="2000" xmlns="http://www.w3.org/2000/svg" xmlns:xlink="http://www.w3.org/1999/xlink"><g id="tight-bounds" transform="matrix(1,0,0,1,0.5000234999999975,0)"><svg viewBox="0 0 320 360" height="360" width="320"><g><svg></svg></g><g><svg viewBox="0 0 320 360" height="360" width="320"><g><path transform="translate(-74.99272,-51.79039) scale(4.65793,4.65793)" d="M20.6 59.9l0.8 1-0.4-1.3c-0.1-0.6-0.8 0.1-0.4 0.3M21.5 59.3c0.3 0.5 0.6 1 0.6 1.5 0 0.7 0.6 1 1.1 1.2-0.7-0.8-1.1-3-1.7-2.7M59.9 16.9c1.7 0 3.3-0.2 5.1 0.2 4.4 1.1 8.1 3.3 10.6 6.4l7 11.2c0.3 2.8 0.9 5.9 0.8 9.3 0.7 0 0.6-1 1.4-1.2-0.8 2-1.2 4.5-1.4 7.4-0.5-1.6 0-4 0.1-5.3-0.7 1.1-1.1 0.3-1.1-0.2 0.1-0.8-0.3-0.7-0.6-1-1.1-1-1.8-2.1-2.6-3.8 0.5-1.3 0.6-3.2-1-4.2-0.5-0.3-1.1-0.8-1.4-1.6-0.4-1.1-1.1-2.4-0.9-4.1 0.1-0.5-1.5 1.1-2.4 0.4-3.9-2.7-7.8-5.8-12.5-8.4-2.5 0-4.3-0.9-5.2-2-0.8-1-0.2-2.3 1-2.4 0.7 0 1.5-0.2 2.1 0.2 0.1-0.4 0.5-0.9 1-0.9M50 14.6l0.2 0.1c1 0.2 1.5 1.6 2.6 1.1 0 0.7 0.1 1.4-0.1 1.9-0.3 0.8-1.2 0.8-1.9 0.8-6.7-0.4-10.6 2.4-14.7 4.8-1.1 0.7-2.3 1.2-3.2 2.1-4.3 4-9 7.7-10.1 15.1l-0.9 8.2c-0.1 0.9-1.1 1.8-0.9 2.9l0.7 4.9c-0.7-0.7-1.1 0.2-0.9 0.6 0.1 0.3 0.5 1.3 1.1 0.4 0.8 1.5 1.6 4.4 2.7 5.7 3.4 4 7.8 7.6 11.4 11.2 0.9-0.2 1.6-0.2 1.8-0.8 0.3 0.6-0.3 1.2-0.8 1.3 1.6 1 3.4 1.9 5.8 2.1 3.1 0.2 6 0.7 8.7 1.4 1.4-0.4 2.8-0.6 4.3-0.7 0.5 0 0.8-0.8 1.4-1l0.1-1c0.6 0.9 0.5-0.3 0.1-0.9 0.7 0.6 0.9 1.1 1.2 1.5 0-0.3 0.8-1.4 0.8-0.1l0.2-1.3c0.3-0.2 0.4 1.1 0.7 0.2 0.3-0.9 0.9-0.2 1.5-0.5-0.2 0.4-0.1 1.2 0.6 0.7l0.8-0.7c0.5 1.2 1.3 0.7 1.7 0.5 4.4-2.8 8.8-6.1 13-9.4l-0.1 1.3 0.5-1.6c0.5 0.5 0.9 0.1 1.1-0.2 0.6-1 1.4-2 2.7-2.9-1.6 4.3-3.5 7.7-5.9 10.5l-1 1.2c0 0.7-0.2 1.6-1 1.7-0.4 0.1-1.2-0.2-1.8 0.4-0.3 0.4 0.7 1.2-0.1 0.6-0.7-0.5-1.4 0-2.2 0.2-0.6 0.2 0.4 0.8 0.6 1.2 0.2 0.4 0.4 0.8 0.3 1.3l-1.1-1.2c-1.3 0.7-2.1 2-3.2 3-0.5 0.4-0.3 1.1-0.3 1.7-0.7 0-1.5-0.2-1.9 0.2-0.3 0.4-0.2 1-0.2 1.6-1-0.1-1.1-1.6-2-1.3-0.9 0.2-1.9 0.3-2.7 0.8 0.6 1.2-1 0.5-0.8 0.7-1.5-0.9-2.8-1.6-4.4-1-3.4-1.1-7.6-0.6-10.7-0.2 0-0.5 0.1-1-0.1-1.1-0.2 0.5-0.8 0.3-0.7 0.3-1.9-1.3-3.8-2.1-5.8-3.2-1.8 0.2-3.5-0.7-4-1.2-1.4-1.3-3-0.6-4.3-0.9-2.8-0.7-3.8-3.6-4.1-5.6-0.2-1-1-1.4-1.3-1.3-1.3-4.2-3.3-8-4.9-11.9-0.4-1-0.3-2-0.3-3.1 0.5 0.2 1 0.1 0.9-0.6-0.5-3.3-1.7-5.8-3-8.2 0.7-3.4 0.8-7.4 2.4-10.4 1.4-2.7 4-4.1 5.8-6.4 0.6-0.8 0.6-1.9 1.2-2.6 2-2 4-4.1 6.2-5.9 1-0.8 2.2 0 3.7-0.3 0.5-1.8 2.5-3.4 4.4-2.9 0.8 0.2 2.4-1.9 2.9-2.1 0.8-0.3 0.4 0.8 0.4 1.5 1.9-1.5 4.5-2.3 6.9-3.2" fill="#ff460b" fill-rule="nonzero" stroke="none" stroke-width="1" stroke-linecap="butt" stroke-linejoin="miter" stroke-miterlimit="10" stroke-dasharray="" stroke-dashoffset="0" font-family="none" font-weight="none" font-size="none" text-anchor="none" style="mix-blend-mode: normal" data-fill-palette-color="tertiary"></path></g><g transform="matrix(1,0,0,1,64,151.18292812395487)"><svg viewBox="0 0 192 57.63414375209025" height="57.63414375209025" width="192"><g><svg viewBox="0 0 278.16865571065694 83.50006401330053" height="57.63414375209025" width="192"><g><svg viewBox="0 0 278.16865571065694 83.50006401330053" height="83.50006401330053" width="278.16865571065694"><g id="textblocktransform"><svg viewBox="0 0 278.16865571065694 83.50006401330053" height="83.50006401330053" width="278.16865571065694" id="textblock"><g><svg viewBox="0 0 278.16865571065694 60.9986" height="60.9986" width="278.16865571065694"><g><svg><g></g><g></g></svg></g><g><svg><g><svg></svg></g><g></g></svg></g><g id="text-0"><svg viewBox="0 0 278.16865571065694 60.9986" height="60.9986" width="278.16865571065694"><g transform="matrix(1,0,0,1,0,10.414949278579353)"><svg width="192" viewBox="3.4 -37.1 180.18 37.7" height="40.1687014428413" data-palette-color="#ff460b"><path d="M3.4 0.5L3.7-1.8Q5.65-2.1 6.38-2.98 7.1-3.85 7.1-6L7.1-6 7.15-27Q7.15-28.6 6.78-29.15 6.4-29.7 5.3-29.7L5.3-29.7Q4.8-29.7 4.3-29.65 3.8-29.6 3.6-29.6L3.6-29.6 3.5-29.8 3.85-32Q4.45-31.95 6.1-31.9 7.75-31.85 9.45-31.85L9.45-31.85Q10.8-31.85 12.53-32.02 14.25-32.2 14.8-32.3L14.8-32.3 14.6-30.05Q12.95-29.85 12.33-29.4 11.7-28.95 11.58-28.35 11.45-27.75 11.3-25.4L11.3-25.4Q11-21.15 10.85-15.7 10.7-10.25 10.7-6.1L10.7-6.1Q10.7-4.3 11-3.53 11.3-2.75 12.13-2.5 12.95-2.25 14.95-2.25L14.95-2.25Q18-2.25 19.43-2.75 20.85-3.25 21.58-4.7 22.3-6.15 22.9-9.35L22.9-9.35 25.1-9.6 25.25-9.35Q25.1-8.55 24.63-5.75 24.15-2.95 23.8 0.15L23.8 0.15 23.55 0.45Q22.1 0.35 17.57 0.18 13.05 0 10.1 0L10.1 0Q7.75 0 5.83 0.2 3.9 0.4 3.4 0.5L3.4 0.5ZM27.55 0.6L27.75-1.45Q29.25-1.85 29.9-2.63 30.55-3.4 30.55-4.7L30.55-4.7 30.55-17.4Q30.55-20.1 28.7-20.1L28.7-20.1Q28.35-20.1 27.95-20.03 27.55-19.95 27.45-19.9L27.45-19.9 27.65-21.75Q29.75-22.05 31.97-22.55 34.2-23.05 34.85-23.2L34.85-23.2 35.1-22.6Q34.65-21.55 34.3-16.18 33.95-10.8 33.95-4.9L33.95-4.9Q33.95-3.45 34.35-2.78 34.75-2.1 35.7-2.1L35.7-2.1Q36.25-2.1 36.75-2.15 37.25-2.2 37.45-2.2L37.45-2.2 37.55-2 37.15 0.15Q36.7 0.1 35.45 0.05 34.2 0 32.7 0L32.7 0Q31.4 0 29.72 0.25 28.05 0.5 27.55 0.6L27.55 0.6ZM31.95-29.1Q30.8-29.1 30.15-29.85 29.5-30.6 29.5-31.65L29.5-31.65Q29.5-32.85 30.35-33.73 31.2-34.6 32.45-34.6L32.45-34.6Q33.6-34.6 34.25-33.85 34.9-33.1 34.9-32.05L34.9-32.05Q34.9-30.85 34.05-29.98 33.2-29.1 31.95-29.1L31.95-29.1ZM51.75 0.6Q48.65 0.6 46.25-0.78 43.85-2.15 42.55-4.67 41.25-7.2 41.25-10.45L41.25-10.45Q41.25-13.8 42.77-16.75 44.3-19.7 46.85-21.45 49.4-23.2 52.3-23.2L52.3-23.2Q55.95-23.2 57.85-21.35 59.75-19.5 59.75-15.95L59.75-15.95Q59.75-14.5 59.45-13.5L59.45-13.5 58.8-12.9 45-12.9Q44.95-8.05 46.92-5.43 48.9-2.8 52.45-2.8L52.45-2.8Q55.25-2.8 58.55-4.35L58.55-4.35 58.85-4.25 59.4-2.8Q57.6-1.5 55.42-0.45 53.25 0.6 51.75 0.6L51.75 0.6ZM45.2-14.75L54.25-15.2Q55-15.3 55.25-15.55 55.5-15.8 55.5-16.55L55.5-16.55Q55.5-18.55 54.42-19.6 53.35-20.65 51.35-20.65L51.35-20.65Q49-20.65 47.32-19.05 45.65-17.45 45.2-14.75L45.2-14.75ZM64.14 0.2L64.39-1.75Q67.24-2.15 67.24-4.7L67.24-4.7 67.24-18.2Q67.19-19.4 66.57-19.78 65.94-20.15 64.09-20.25L64.09-20.25 63.89-20.55 64.24-22.25 67.24-22.8 67.24-23Q67.24-27.3 68.67-30.5 70.09-33.7 72.67-35.4 75.24-37.1 78.74-37.1L78.74-37.1Q80.24-37.1 81.52-36.9 82.79-36.7 83.52-36.48 84.24-36.25 84.44-36.15L84.44-36.15 84.54-35.7Q84.39-35.45 83.92-34.52 83.44-33.6 82.99-32.45L82.99-32.45 82.44-32.3Q82.24-32.45 81.47-32.9 80.69-33.35 79.42-33.75 78.14-34.15 76.69-34.15L76.69-34.15Q73.84-34.15 72.44-31.88 71.04-29.6 70.94-24.9L70.94-24.9 70.89-22.45Q73.49-22.45 75.34-22.5 77.19-22.55 77.79-22.6L77.79-22.6 77.94-22.45 77.44-19.8Q76.89-19.85 75.12-19.9 73.34-19.95 70.84-19.95L70.84-19.95 70.64-4.9Q70.64-3.5 71.27-2.83 71.89-2.15 73.19-2.15L73.19-2.15Q74.39-2.15 75.17-2.2 75.94-2.25 76.19-2.25L76.19-2.25 76.29-2.05 75.94 0.1Q75.24 0.1 73.39 0.05 71.54 0 69.74 0L69.74 0Q67.99 0 66.32 0.08 64.64 0.15 64.14 0.2L64.14 0.2ZM89.74 0.6Q86.64 0.6 84.24-0.78 81.84-2.15 80.54-4.67 79.24-7.2 79.24-10.45L79.24-10.45Q79.24-13.8 80.77-16.75 82.29-19.7 84.84-21.45 87.39-23.2 90.29-23.2L90.29-23.2Q93.94-23.2 95.84-21.35 97.74-19.5 97.74-15.95L97.74-15.95Q97.74-14.5 97.44-13.5L97.44-13.5 96.79-12.9 82.99-12.9Q82.94-8.05 84.92-5.43 86.89-2.8 90.44-2.8L90.44-2.8Q93.24-2.8 96.54-4.35L96.54-4.35 96.84-4.25 97.39-2.8Q95.59-1.5 93.42-0.45 91.24 0.6 89.74 0.6L89.74 0.6ZM83.19-14.75L92.24-15.2Q92.99-15.3 93.24-15.55 93.49-15.8 93.49-16.55L93.49-16.55Q93.49-18.55 92.42-19.6 91.34-20.65 89.34-20.65L89.34-20.65Q86.99-20.65 85.32-19.05 83.64-17.45 83.19-14.75L83.19-14.75ZM102.79-1.8Q104.29-1.95 104.79-2.78 105.29-3.6 105.29-5.95L105.29-5.95 105.29-16.95Q105.29-18.6 104.84-19.3 104.39-20 103.39-20L103.39-20Q102.99-20 102.71-19.95 102.44-19.9 102.34-19.85L102.34-19.85 102.09-20.2 102.24-21.75Q104.14-22.1 106.26-22.6 108.39-23.1 108.99-23.25L108.99-23.25 109.34-22.95Q109.24-22.5 109.04-20.88 108.84-19.25 108.89-17.8L108.89-17.8 109.09-17.65Q110.59-20 112.61-21.5 114.64-23 116.14-23L116.14-23Q116.84-23 117.21-22.93 117.59-22.85 117.69-22.8L117.69-22.8 117.84-22.6Q117.74-21.9 117.41-19.63 117.09-17.35 117.04-15.45L117.04-15.45 115.09-15.3Q115.09-17.35 114.81-18.03 114.54-18.7 113.74-18.7L113.74-18.7Q112.64-18.7 111.39-17.78 110.14-16.85 109.09-15.3L109.09-15.3Q109.04-13.85 108.89-10.5 108.74-7.15 108.69-5.1L108.69-5.1Q108.69-3.4 109.19-2.8 109.69-2.2 111.09-2.2L111.09-2.2Q111.74-2.2 112.39-2.25 113.04-2.3 113.29-2.3L113.29-2.3 113.34-2.1 112.89 0.1Q112.39 0.1 110.89 0.05 109.39 0 107.79 0L107.79 0Q105.94 0 104.44 0.08 102.94 0.15 102.54 0.2L102.54 0.2 102.79-1.8ZM121.19 0.6L121.39-1.45Q122.89-1.85 123.54-2.63 124.19-3.4 124.19-4.7L124.19-4.7 124.19-17.4Q124.19-20.1 122.34-20.1L122.34-20.1Q121.99-20.1 121.59-20.03 121.19-19.95 121.09-19.9L121.09-19.9 121.29-21.75Q123.39-22.05 125.61-22.55 127.84-23.05 128.49-23.2L128.49-23.2 128.74-22.6Q128.29-21.55 127.94-16.18 127.59-10.8 127.59-4.9L127.59-4.9Q127.59-3.45 127.99-2.78 128.39-2.1 129.34-2.1L129.34-2.1Q129.89-2.1 130.39-2.15 130.89-2.2 131.09-2.2L131.09-2.2 131.19-2 130.79 0.15Q130.34 0.1 129.09 0.05 127.84 0 126.34 0L126.34 0Q125.04 0 123.36 0.25 121.69 0.5 121.19 0.6L121.19 0.6ZM125.59-29.1Q124.44-29.1 123.79-29.85 123.14-30.6 123.14-31.65L123.14-31.65Q123.14-32.85 123.99-33.73 124.84-34.6 126.09-34.6L126.09-34.6Q127.24-34.6 127.89-33.85 128.54-33.1 128.54-32.05L128.54-32.05Q128.54-30.85 127.69-29.98 126.84-29.1 125.59-29.1L125.59-29.1ZM149.43-1.45Q150.93-1.85 151.58-2.63 152.23-3.4 152.23-4.7L152.23-4.7 152.43-14.6Q152.43-17.1 151.36-18.45 150.28-19.8 148.28-19.8L148.28-19.8Q146.68-19.8 145.03-18.98 143.38-18.15 142.13-17.2L142.13-17.2Q141.68-6.85 141.68-4.9L141.68-4.9Q141.68-3.35 142.08-2.73 142.48-2.1 143.48-2.1L143.48-2.1Q144.03-2.1 144.53-2.15 145.03-2.2 145.23-2.2L145.23-2.2 145.33-2 144.88 0.15Q144.43 0.1 143.13 0.05 141.83 0 140.33 0L140.33 0Q139.03 0 137.46 0.13 135.88 0.25 135.38 0.3L135.38 0.3 135.63-1.75Q137.08-2 137.68-2.65 138.28-3.3 138.28-4.7L138.28-4.7 138.28-16.9Q138.28-18.6 137.73-19.28 137.18-19.95 135.83-19.95L135.83-19.95 135.28-19.95 135.13-20.15 135.28-21.8Q137.43-22.15 139.56-22.63 141.68-23.1 142.28-23.25L142.28-23.25 142.58-22.85Q142.48-22.55 142.28-21.58 142.08-20.6 142.03-19.55L142.03-19.55 142.13-19.4Q147.83-23.2 149.48-23.2L149.48-23.2Q152.63-23.2 154.48-21.45 156.33-19.7 156.33-16.75L156.33-16.75Q156.33-16.25 156.03-12.15L156.03-12.15Q155.63-6.95 155.63-4.9L155.63-4.9Q155.63-3.45 156.03-2.78 156.43-2.1 157.38-2.1L157.38-2.1Q157.93-2.1 158.43-2.15 158.93-2.2 159.13-2.2L159.13-2.2 159.23-2 158.83 0.15Q158.38 0.1 157.13 0.05 155.88 0 154.38 0L154.38 0Q153.08 0 151.41 0.25 149.73 0.5 149.23 0.6L149.23 0.6 149.43-1.45ZM171.98 0.6Q169.13 0.6 166.93-0.8 164.73-2.2 163.51-4.73 162.28-7.25 162.28-10.5L162.28-10.5Q162.28-14 163.81-16.93 165.33-19.85 167.98-21.53 170.63-23.2 173.88-23.2L173.88-23.2Q176.68-23.2 178.91-21.8 181.13-20.4 182.36-17.88 183.58-15.35 183.58-12.1L183.58-12.1Q183.58-8.6 182.06-5.68 180.53-2.75 177.88-1.07 175.23 0.6 171.98 0.6L171.98 0.6ZM173.38-1.85Q176.18-1.85 177.83-4.13 179.48-6.4 179.48-10.3L179.48-10.3Q179.48-13.25 178.58-15.58 177.68-17.9 176.06-19.2 174.43-20.5 172.38-20.5L172.38-20.5Q169.58-20.5 167.93-18.2 166.28-15.9 166.28-11.95L166.28-11.95Q166.28-9 167.18-6.7 168.08-4.4 169.68-3.13 171.28-1.85 173.38-1.85L173.38-1.85Z" opacity="1" transform="matrix(1,0,0,1,0,0)" fill="#ff460b" class="wordmark-text-0" data-fill-palette-color="primary"></path></svg></g><g><svg xmlns="http://www.w3.org/2000/svg" xmlns:xlink="http://www.w3.org/1999/xlink" version="1.1" x="206.4014" y="0" viewBox="16.057 21.15 67.886 57.699725572550996" enable-background="new 0 0 100 100" xml:space="preserve" height="60.9986" width="71.76725571065695" class="icon-dxe-0" data-fill-palette-color="accent" id="dxe-0"><path fill-rule="evenodd" clip-rule="evenodd" d="M67.486 77.722C60.047 79.323 51.91 78.75 50 78.75 48.106 78.75 39.887 79.288 32.514 77.722 23.868 75.884 16.057 71.511 16.057 65.378 16.057 62.293 19.193 62.293 19.226 62.293H80.873C80.937 62.293 83.943 62.293 83.943 65.378 83.943 71.464 76.066 75.874 67.486 77.722M80.857 56.122A5.144 5.144 0 0 1 75.714 61.265H24.286A5.144 5.144 0 0 1 24.286 50.978H33.478C35.197 52.915 36.745 55.557 37.657 59.207 37.657 59.207 38.685 62.293 42.8 60.235 42.8 60.235 47.825 55.237 56.621 50.978H75.715A5.144 5.144 0 0 1 80.857 56.122M75.715 45.836A2.056 2.056 0 1 1 75.715 49.951H58.867C62.836 48.222 67.437 46.702 72.629 45.837H75.715zM24.286 49.95A2.057 2.057 0 0 1 24.286 45.835S28.601 46.288 32.481 49.949H24.286zM42.8 58.179C39.714 61.265 38.685 58.179 38.685 58.179 35.407 46.993 27.371 45.836 27.371 45.836H68.513C56.172 46.864 42.8 58.179 42.8 58.179M78.814 44.807H21.283C21.25 44.807 18.114 44.807 18.114 41.721 18.114 30.36 32.39 21.15 50 21.15S81.887 30.36 81.887 41.721C81.887 44.807 78.881 44.807 78.814 44.807M34.571 31.436C33.435 31.436 32.514 31.896 32.514 32.465 32.514 33.033 33.435 33.493 34.571 33.493S36.628 33.033 36.628 32.465 35.708 31.436 34.571 31.436M43.829 26.293C42.693 26.293 41.772 26.753 41.772 27.321S42.693 28.35 43.829 28.35 45.886 27.89 45.886 27.321C45.886 26.753 44.965 26.293 43.829 26.293M50 32.464C48.864 32.464 47.943 32.924 47.943 33.492S48.864 34.521 50 34.521C51.137 34.521 52.057 34.061 52.057 33.492 52.057 32.925 51.137 32.464 50 32.464M56.172 26.293C55.035 26.293 54.115 26.753 54.115 27.321S55.035 28.35 56.172 28.35 58.229 27.89 58.229 27.321C58.229 26.753 57.309 26.293 56.172 26.293M65.43 31.436C64.293 31.436 63.371 31.896 63.371 32.465 63.371 33.033 64.293 33.493 65.43 33.493 66.565 33.493 67.487 33.033 67.487 32.465 67.486 31.896 66.564 31.436 65.43 31.436" fill="#b67845" data-fill-palette-color="accent"></path></svg></g></svg></g></svg></g><g transform="matrix(1,0,0,1,53.13021324073547,70.48146636182021)"><svg viewBox="0 0 171.908229229186 13.018597651480329" height="13.018597651480329" width="171.908229229186"><g transform="matrix(1,0,0,1,0,0)"><svg width="171.908229229186" viewBox="3.9 -37.3 602.74 45.65" height="13.018597651480329" data-palette-color="#ff460b"><path d="M3.9 0L3.9-36.75 12.75-36.75Q23.85-36.75 28.28-31.5 32.7-26.25 32.7-19L32.7-19Q32.7-13.95 30.8-9.68 28.9-5.4 24.53-2.7 20.15 0 13.05 0L13.05 0 3.9 0ZM9.5-4.95L13.65-4.95Q20.55-4.95 23.68-8.88 26.8-12.8 26.8-18.75L26.8-18.75Q26.8-24.55 23.65-28.2 20.5-31.85 13.65-31.85L13.65-31.85 9.5-31.85 9.5-4.95ZM48.8 0.5Q44.7 0.5 41.95-1.13 39.2-2.75 37.9-5.48 36.6-8.2 36.6-11.45L36.6-11.45Q36.6-15.1 38.12-17.85 39.65-20.6 42.35-22.08 45.05-23.55 48.45-23.55L48.45-23.55Q53.75-23.55 56.32-20.63 58.9-17.7 58.9-12.4L58.9-12.4Q58.9-11.05 58.75-9.6L58.75-9.6 42.25-9.6Q42.8-6.55 44.42-5.2 46.05-3.85 48.95-3.85L48.95-3.85Q51.35-3.85 52.9-4.25 54.45-4.65 55.75-5.35L55.75-5.35 57.4-1.5Q56.15-0.7 54-0.1 51.85 0.5 48.8 0.5L48.8 0.5ZM42.25-13.35L53.65-13.35Q53.7-16.45 52.3-17.73 50.9-19 48.3-19L48.3-19Q43.05-19 42.25-13.35L42.25-13.35ZM64.95 0L64.95-22.95 70.55-22.95 70.55 0 64.95 0ZM67.7-27.25Q66.15-27.25 65.09-28.3 64.05-29.35 64.05-30.9L64.05-30.9Q64.05-32.3 65.09-33.3 66.15-34.3 67.7-34.3L67.7-34.3Q69.2-34.3 70.25-33.3 71.3-32.3 71.3-30.9L71.3-30.9Q71.3-29.35 70.27-28.3 69.25-27.25 67.7-27.25L67.7-27.25ZM78.04 0L78.04-22.95 83.34-22.95 83.39-18.75Q84.34-20.85 86.39-22.2 88.44-23.55 91.19-23.55L91.19-23.55Q94.74-23.55 96.64-22.08 98.54-20.6 99.19-17.95 99.84-15.3 99.84-11.05L99.84-11.05 99.84 0 94.44 0 94.44-10.9Q94.44-15.25 93.59-17.18 92.74-19.1 90.09-19.1L90.09-19.1Q88.59-19.1 87.04-18.18 85.49-17.25 84.47-15.5 83.44-13.75 83.44-11.4L83.44-11.4 83.44 0 78.04 0ZM136.54 0.5Q131.09 0.5 126.79-2 122.49-4.5 120.06-8.88 117.64-13.25 117.64-18.7L117.64-18.7Q117.64-24 120.09-28.25 122.54-32.5 126.89-34.9 131.24-37.3 136.69-37.3L136.69-37.3Q139.64-37.3 142.01-36.77 144.39-36.25 145.89-35.58 147.39-34.9 147.94-34.4L147.94-34.4 145.74-29.7Q142.64-32.2 136.59-32.2L136.59-32.2Q132.59-32.2 129.64-30.45 126.69-28.7 125.14-25.7 123.59-22.7 123.59-19L123.59-19Q123.59-14.8 125.26-11.5 126.94-8.2 129.91-6.38 132.89-4.55 136.64-4.55L136.64-4.55Q138.99-4.55 141.14-5.13 143.29-5.7 144.79-6.95L144.79-6.95 144.79-14.05 137.24-14.05 137.24-19.2 150.34-19.2 150.34-4.8Q148.54-2.55 144.91-1.03 141.29 0.5 136.54 0.5L136.54 0.5ZM167.09 0.5Q162.99 0.5 160.24-1.13 157.49-2.75 156.19-5.48 154.88-8.2 154.88-11.45L154.88-11.45Q154.88-15.1 156.41-17.85 157.94-20.6 160.63-22.08 163.34-23.55 166.74-23.55L166.74-23.55Q172.03-23.55 174.61-20.63 177.19-17.7 177.19-12.4L177.19-12.4Q177.19-11.05 177.03-9.6L177.03-9.6 160.53-9.6Q161.09-6.55 162.71-5.2 164.34-3.85 167.24-3.85L167.24-3.85Q169.63-3.85 171.19-4.25 172.74-4.65 174.03-5.35L174.03-5.35 175.69-1.5Q174.44-0.7 172.28-0.1 170.13 0.5 167.09 0.5L167.09 0.5ZM160.53-13.35L171.94-13.35Q171.99-16.45 170.59-17.73 169.19-19 166.59-19L166.59-19Q161.34-19 160.53-13.35L160.53-13.35ZM182.83 0L182.83-22.95 188.13-22.95 188.18-18.75Q189.13-20.85 191.18-22.2 193.23-23.55 195.98-23.55L195.98-23.55Q199.53-23.55 201.43-22.08 203.33-20.6 203.98-17.95 204.63-15.3 204.63-11.05L204.63-11.05 204.63 0 199.23 0 199.23-10.9Q199.23-15.25 198.38-17.18 197.53-19.1 194.88-19.1L194.88-19.1Q193.38-19.1 191.83-18.18 190.28-17.25 189.26-15.5 188.23-13.75 188.23-11.4L188.23-11.4 188.23 0 182.83 0ZM219.53 0.5Q214.78 0.5 213-2.3 211.23-5.1 211.23-10.1L211.23-10.1 211.23-22.95 216.63-22.95 216.63-11.45Q216.63-8.6 216.96-7.03 217.28-5.45 218.25-4.7 219.23-3.95 221.18-3.95L221.18-3.95Q222.58-3.95 223.88-4.75 225.18-5.55 226-6.93 226.83-8.3 226.83-9.95L226.83-9.95 226.83-22.95 232.18-22.95 232.18 0 227.78 0 227.18-3.35Q225.93-1.4 224.06-0.45 222.18 0.5 219.53 0.5L219.53 0.5ZM247.28 0.5Q244.88 0.5 242.3-0.13 239.73-0.75 238.63-1.6L238.63-1.6 240.43-5.85Q243.43-3.75 247.28-3.75L247.28-3.75Q251.13-3.75 251.13-6L251.13-6Q251.13-7 250.33-7.55 249.53-8.1 247.48-8.85L247.48-8.85 245.58-9.55Q242.58-10.75 240.83-12.43 239.08-14.1 239.08-16.85L239.08-16.85Q239.08-20 241.55-21.78 244.03-23.55 248.18-23.55L248.18-23.55Q250.23-23.55 252.2-23.1 254.18-22.65 255.23-21.95L255.23-21.95 253.28-17.65Q252.63-18.3 251.2-18.78 249.78-19.25 248.03-19.25L248.03-19.25Q244.48-19.25 244.48-17.1L244.48-17.1Q244.48-15.9 245.43-15.28 246.38-14.65 248.53-13.9L248.53-13.9Q248.73-13.85 250.08-13.35L250.08-13.35Q253.28-12.1 254.83-10.5 256.38-8.9 256.38-6.4L256.38-6.4Q256.38-3 253.8-1.25 251.23 0.5 247.28 0.5L247.28 0.5ZM269.88 0.5Q267.48 0.5 264.9-0.13 262.32-0.75 261.23-1.6L261.23-1.6 263.03-5.85Q266.03-3.75 269.88-3.75L269.88-3.75Q273.73-3.75 273.73-6L273.73-6Q273.73-7 272.93-7.55 272.13-8.1 270.07-8.85L270.07-8.85 268.18-9.55Q265.18-10.75 263.43-12.43 261.68-14.1 261.68-16.85L261.68-16.85Q261.68-20 264.15-21.78 266.63-23.55 270.78-23.55L270.78-23.55Q272.82-23.55 274.8-23.1 276.78-22.65 277.82-21.95L277.82-21.95 275.88-17.65Q275.23-18.3 273.8-18.78 272.38-19.25 270.63-19.25L270.63-19.25Q267.07-19.25 267.07-17.1L267.07-17.1Q267.07-15.9 268.03-15.28 268.98-14.65 271.13-13.9L271.13-13.9Q271.32-13.85 272.68-13.35L272.68-13.35Q275.88-12.1 277.43-10.5 278.98-8.9 278.98-6.4L278.98-6.4Q278.98-3 276.4-1.25 273.82 0.5 269.88 0.5L269.88 0.5ZM283.62 8.35Q285.62 4.05 286.67 0.4L286.67 0.4Q284.32-0.35 284.32-3.05L284.32-3.05Q284.32-4.6 285.35-5.63 286.37-6.65 287.92-6.65L287.92-6.65Q289.52-6.65 290.47-5.48 291.42-4.3 291.42-2.1L291.42-2.1Q291.42 0.15 290.05 3 288.67 5.85 286.87 8.35L286.87 8.35 283.62 8.35ZM318.62 0.5Q313.87 0.5 312.09-2.3 310.32-5.1 310.32-10.1L310.32-10.1 310.32-22.95 315.72-22.95 315.72-11.45Q315.72-8.6 316.04-7.03 316.37-5.45 317.34-4.7 318.32-3.95 320.27-3.95L320.27-3.95Q321.67-3.95 322.97-4.75 324.27-5.55 325.09-6.93 325.92-8.3 325.92-9.95L325.92-9.95 325.92-22.95 331.27-22.95 331.27 0 326.87 0 326.27-3.35Q325.02-1.4 323.14-0.45 321.27 0.5 318.62 0.5L318.62 0.5ZM338.47 0L338.47-22.95 343.77-22.95 343.82-18.75Q344.77-20.85 346.82-22.2 348.87-23.55 351.62-23.55L351.62-23.55Q355.17-23.55 357.07-22.08 358.97-20.6 359.62-17.95 360.27-15.3 360.27-11.05L360.27-11.05 360.27 0 354.87 0 354.87-10.9Q354.87-15.25 354.02-17.18 353.17-19.1 350.52-19.1L350.52-19.1Q349.02-19.1 347.47-18.18 345.92-17.25 344.89-15.5 343.87-13.75 343.87-11.4L343.87-11.4 343.87 0 338.47 0ZM375.11 0.5Q372.71 0.5 370.14-0.13 367.56-0.75 366.46-1.6L366.46-1.6 368.26-5.85Q371.26-3.75 375.11-3.75L375.11-3.75Q378.96-3.75 378.96-6L378.96-6Q378.96-7 378.16-7.55 377.36-8.1 375.31-8.85L375.31-8.85 373.41-9.55Q370.41-10.75 368.66-12.43 366.91-14.1 366.91-16.85L366.91-16.85Q366.91-20 369.39-21.78 371.86-23.55 376.01-23.55L376.01-23.55Q378.06-23.55 380.04-23.1 382.01-22.65 383.06-21.95L383.06-21.95 381.11-17.65Q380.46-18.3 379.04-18.78 377.61-19.25 375.86-19.25L375.86-19.25Q372.31-19.25 372.31-17.1L372.31-17.1Q372.31-15.9 373.26-15.28 374.21-14.65 376.36-13.9L376.36-13.9Q376.56-13.85 377.91-13.35L377.91-13.35Q381.11-12.1 382.66-10.5 384.21-8.9 384.21-6.4L384.21-6.4Q384.21-3 381.64-1.25 379.06 0.5 375.11 0.5L375.11 0.5ZM400.66 0.5Q396.56 0.5 393.81-1.13 391.06-2.75 389.76-5.48 388.46-8.2 388.46-11.45L388.46-11.45Q388.46-15.1 389.99-17.85 391.51-20.6 394.21-22.08 396.91-23.55 400.31-23.55L400.31-23.55Q405.61-23.55 408.19-20.63 410.76-17.7 410.76-12.4L410.76-12.4Q410.76-11.05 410.61-9.6L410.61-9.6 394.11-9.6Q394.66-6.55 396.29-5.2 397.91-3.85 400.81-3.85L400.81-3.85Q403.21-3.85 404.76-4.25 406.31-4.65 407.61-5.35L407.61-5.35 409.26-1.5Q408.01-0.7 405.86-0.1 403.71 0.5 400.66 0.5L400.66 0.5ZM394.11-13.35L405.51-13.35Q405.56-16.45 404.16-17.73 402.76-19 400.16-19L400.16-19Q394.91-19 394.11-13.35L394.11-13.35ZM416.26 0L416.26-22.95 421.66-22.95 421.66-18.45Q422.46-20.75 424.26-22.15 426.06-23.55 428.36-23.55L428.36-23.55Q429.96-23.55 430.56-23.25L430.56-23.25 429.81-17.8Q429.36-18.1 427.86-18.1L427.86-18.1Q425.51-18.1 423.58-16.6 421.66-15.1 421.66-11.8L421.66-11.8 421.66 0 416.26 0ZM464.1 0.5Q458.65 0.5 454.35-2 450.05-4.5 447.63-8.88 445.2-13.25 445.2-18.7L445.2-18.7Q445.2-24 447.65-28.25 450.1-32.5 454.45-34.9 458.8-37.3 464.25-37.3L464.25-37.3Q467.2-37.3 469.58-36.77 471.95-36.25 473.45-35.58 474.95-34.9 475.5-34.4L475.5-34.4 473.3-29.7Q470.2-32.2 464.15-32.2L464.15-32.2Q460.15-32.2 457.2-30.45 454.25-28.7 452.7-25.7 451.15-22.7 451.15-19L451.15-19Q451.15-14.8 452.83-11.5 454.5-8.2 457.48-6.38 460.45-4.55 464.2-4.55L464.2-4.55Q466.55-4.55 468.7-5.13 470.85-5.7 472.35-6.95L472.35-6.95 472.35-14.05 464.8-14.05 464.8-19.2 477.9-19.2 477.9-4.8Q476.1-2.55 472.48-1.03 468.85 0.5 464.1 0.5L464.1 0.5ZM494.65 0.5Q490.55 0.5 487.8-1.13 485.05-2.75 483.75-5.48 482.45-8.2 482.45-11.45L482.45-11.45Q482.45-15.1 483.98-17.85 485.5-20.6 488.2-22.08 490.9-23.55 494.3-23.55L494.3-23.55Q499.6-23.55 502.18-20.63 504.75-17.7 504.75-12.4L504.75-12.4Q504.75-11.05 504.6-9.6L504.6-9.6 488.1-9.6Q488.65-6.55 490.28-5.2 491.9-3.85 494.8-3.85L494.8-3.85Q497.2-3.85 498.75-4.25 500.3-4.65 501.6-5.35L501.6-5.35 503.25-1.5Q502-0.7 499.85-0.1 497.7 0.5 494.65 0.5L494.65 0.5ZM488.1-13.35L499.5-13.35Q499.55-16.45 498.15-17.73 496.75-19 494.15-19L494.15-19Q488.9-19 488.1-13.35L488.1-13.35ZM510.25 0L510.25-22.95 515.65-22.95 515.65-18.45Q516.45-20.75 518.25-22.15 520.05-23.55 522.35-23.55L522.35-23.55Q523.95-23.55 524.55-23.25L524.55-23.25 523.8-17.8Q523.35-18.1 521.85-18.1L521.85-18.1Q519.5-18.1 517.57-16.6 515.65-15.1 515.65-11.8L515.65-11.8 515.65 0 510.25 0ZM528.75 0L528.75-22.95 534.35-22.95 534.35 0 528.75 0ZM531.5-27.25Q529.95-27.25 528.9-28.3 527.85-29.35 527.85-30.9L527.85-30.9Q527.85-32.3 528.9-33.3 529.95-34.3 531.5-34.3L531.5-34.3Q533-34.3 534.05-33.3 535.1-32.3 535.1-30.9L535.1-30.9Q535.1-29.35 534.07-28.3 533.05-27.25 531.5-27.25L531.5-27.25ZM552.54 0.5Q549.14 0.5 546.42-0.98 543.69-2.45 542.09-5.23 540.49-8 540.49-11.75L540.49-11.75Q540.49-15.3 541.97-17.98 543.44-20.65 546.12-22.1 548.79-23.55 552.29-23.55L552.29-23.55Q554.94-23.55 556.87-22.88 558.79-22.2 559.89-21.2L559.89-21.2 557.49-16.85Q555.39-18.95 552.74-18.95L552.74-18.95Q549.54-18.95 547.87-17 546.19-15.05 546.19-11.8L546.19-11.8Q546.19-8.1 547.92-6.05 549.64-4 552.74-4L552.74-4Q554.29-4 555.77-4.45 557.24-4.9 558.04-5.5L558.04-5.5 559.99-1.7Q558.89-0.85 556.92-0.18 554.94 0.5 552.54 0.5L552.54 0.5ZM565.39 0L565.39-36.75 570.64-36.75 570.64-22.95 570.44-18.7Q571.39-20.8 573.49-22.18 575.59-23.55 578.39-23.55L578.39-23.55Q581.94-23.55 583.84-22.08 585.74-20.6 586.39-17.95 587.04-15.3 587.04-11.05L587.04-11.05 587.04 0 581.69 0 581.69-11.1Q581.69-14 581.36-15.65 581.04-17.3 580.06-18.15 579.09-19 577.24-19L577.24-19Q575.74-19 574.21-18.1 572.69-17.2 571.69-15.48 570.69-13.75 570.69-11.4L570.69-11.4 570.69 0 565.39 0ZM595.89 0L595.89-18.55 591.84-18.55 591.84-22.95 595.89-22.95 595.89-32.3 601.34-33.5 601.34-22.95 606.64-22.95 606.64-18.55 601.34-18.55 601.34 0 595.89 0Z" opacity="1" transform="matrix(1,0,0,1,0,0)" fill="#ff460b" class="slogan-text-1" data-fill-palette-color="secondary" id="text-1"></path></svg></g></svg></g></svg></g></svg></g></svg></g></svg></g></svg></g><defs></defs></svg><rect width="320" height="360" fill="none" stroke="none" visibility="hidden"></rect></g></svg></g></svg>